<svg id="visual" viewBox="0 0 900 600" width="860" height="600" xmlns="http://www.w3.org/2000/svg" xmlns:xlink="http://www.w3.org/1999/xlink" version="1.1"><path d="M0 356L30 354.3C60 352.7 120 349.3 180 359.7C240 370 300 394 360 395.2C420 396.3 480 374.7 540 372.7C600 370.7 660 388.3 720 390.7C780 393 840 380 870 373.5L900 367L900 601L870 601C840 601 780 601 720 601C660 601 600 601 540 601C480 601 420 601 360 601C300 601 240 601 180 601C120 601 60 601 30 601L0 601Z" fill="#021321"></path><path d="M0 373L30 378.5C60 384 120 395 180 409.7C240 424.3 300 442.7 360 443C420 443.3 480 425.7 540 413.5C600 401.3 660 394.7 720 396.8C780 399 840 410 870 415.5L900 421L900 601L870 601C840 601 780 601 720 601C660 601 600 601 540 601C480 601 420 601 360 601C300 601 240 601 180 601C120 601 60 601 30 601L0 601Z" fill="#02121f"></path><path d="M0 470L30 468.7C60 467.3 120 464.7 180 451.7C240 438.7 300 415.3 360 407.3C420 399.3 480 406.7 540 407C600 407.3 660 400.7 720 405.8C780 411 840 428 870 436.5L900 445L900 601L870 601C840 601 780 601 720 601C660 601 600 601 540 601C480 601 420 601 360 601C300 601 240 601 180 601C120 601 60 601 30 601L0 601Z" fill="#02111d"></path><path d="M0 428L30 435.8C60 443.7 120 459.3 180 460.8C240 462.3 300 449.7 360 447C420 444.3 480 451.7 540 451.5C600 451.3 660 443.7 720 441.2C780 438.7 840 441.3 870 442.7L900 444L900 601L870 601C840 601 780 601 720 601C660 601 600 601 540 601C480 601 420 601 360 601C300 601 240 601 180 601C120 601 60 601 30 601L0 601Z" fill="#02101b"></path><path d="M0 517L30 503.8C60 490.7 120 464.3 180 453.2C240 442 300 446 360 454C420 462 480 474 540 485.7C600 497.3 660 508.7 720 504.8C780 501 840 482 870 472.5L900 463L900 601L870 601C840 601 780 601 720 601C660 601 600 601 540 601C480 601 420 601 360 601C300 601 240 601 180 601C120 601 60 601 30 601L0 601Z" fill="#020f19"></path><path d="M0 522L30 520.2C60 518.3 120 514.7 180 515.7C240 516.7 300 522.3 360 524.8C420 527.3 480 526.7 540 522.3C600 518 660 510 720 500C780 490 840 478 870 472L900 466L900 601L870 601C840 601 780 601 720 601C660 601 600 601 540 601C480 601 420 601 360 601C300 601 240 601 180 601C120 601 60 601 30 601L0 601Z" fill="#020e17"></path><path d="M0 541L30 539.8C60 538.7 120 536.3 180 529.7C240 523 300 512 360 513.5C420 515 480 529 540 537.5C600 546 660 549 720 545.2C780 541.3 840 530.7 870 525.3L900 520L900 601L870 601C840 601 780 601 720 601C660 601 600 601 540 601C480 601 420 601 360 601C300 601 240 601 180 601C120 601 60 601 30 601L0 601Z" fill="#020d15"></path><path d="M0 563L30 563.8C60 564.7 120 566.3 180 564.2C240 562 300 556 360 556.7C420 557.3 480 564.7 540 564.7C600 564.7 660 557.3 720 553.7C780 550 840 550 870 550L900 550L900 601L870 601C840 601 780 601 720 601C660 601 600 601 540 601C480 601 420 601 360 601C300 601 240 601 180 601C120 601 60 601 30 601L0 601Z" fill="#020b13"></path><path d="M0 575L30 573.5C60 572 120 569 180 564.7C240 560.3 300 554.7 360 552.3C420 550 480 551 540 555.2C600 559.3 660 566.7 720 570.3C780 574 840 574 870 574L900 574L900 601L870 601C840 601 780 601 720 601C660 601 600 601 540 601C480 601 420 601 360 601C300 601 240 601 180 601C120 601 60 601 30 601L0 601Z" fill="#020a11"></path></svg>